<svg xmlns="http://www.w3.org/2000/svg" width="128" height="128" viewBox="0 0 48 48"><g fill="none"><path stroke="currentColor" stroke-linejoin="round" stroke-width="4" d="M6 9a3 3 0 0 1 3-3h25.281L42 13.207V39a3 3 0 0 1-3 3H9a3 3 0 0 1-3-3z"/><path d="M24.008 6L24 13.385c0 .34-.448.615-1 .615h-8c-.552 0-1-.275-1-.615V6" clip-rule="evenodd"/><path stroke="currentColor" stroke-linejoin="round" stroke-width="4" d="M24.008 6L24 13.385c0 .34-.448.615-1 .615h-8c-.552 0-1-.275-1-.615V6z"/><path stroke="currentColor" stroke-linecap="round" stroke-linejoin="round" stroke-width="4" d="M9 6h25.281M14 26h20m-20 8h10.008"/></g></svg>