<?xml version="1.0" encoding="UTF-8"?>
<svg xmlns="http://www.w3.org/2000/svg" width="16" height="16" viewBox="0 0 1024 1024">
  <path d="M658.02666667 432.85333333H347.30666667c-18.77333333 0-34.13333333 15.36-34.13333334 34.13333334s15.36 34.13333333 34.13333334 34.13333333h310.72c18.77333333 0 34.13333333-15.36 34.13333333-34.13333333s-15.36-34.13333333-34.13333333-34.13333334zM571.30666667 557.22666667h-224c-18.77333333 0-34.13333333 15.36-34.13333334 34.13333333s15.36 34.13333333 34.13333334 34.13333333h224c18.77333333 0 34.13333333-15.36 34.13333333-34.13333333s-15.36-34.13333333-34.13333333-34.13333333zM894.29333333 61.12l-621.76-0.10666667c-18.88 0-34.13333333 15.25333333-34.13333333 34.13333334s15.25333333 34.13333333 34.13333333 34.13333333l621.76 0.10666667c15.25333333 0 27.73333333 12.48 27.73333334 27.73333333v431.36c0 18.88 15.25333333 34.13333333 34.13333333 34.13333333s34.13333333-15.25333333 34.13333333-34.13333333V157.12c0-52.8-43.2-96-96-96z" fill="#000000"/>
  <path d="M734.4 229.54666667H157.54666667c-67.52 0-122.66666667 55.25333333-122.66666667 122.66666666v368.74666667c0 66.77333333 54.08 121.49333333 120.53333333 122.66666667l0.42666667 66.98666666c8.64 38.4 50.98666667 84.37333333 121.81333333 36.05333334L389.54666667 843.73333333h344.64c67.52 0 122.66666667-55.25333333 122.66666666-122.66666666V352.21333333c0.21333333-67.52-55.04-122.66666667-122.45333333-122.66666666z m54.4 491.30666666c0 14.4-5.65333333 28.05333333-16 38.4s-24 16-38.4 16h-340.26666667v0.10666667H373.33333333l-72.85333333 68.05333333-60.37333333 56.32c-26.88 17.6-24.96-26.66666667-24.96-26.66666666l-0.10666667-29.76v-68.05333334h-58.45333333v-0.21333333c-14.08-0.21333333-27.30666667-5.86666667-37.44-16-10.34666667-10.34666667-16-24-16-38.4V352.21333333c0-14.4 5.65333333-28.05333333 16-38.4s24-16 38.4-16h576.85333333c14.4 0 28.05333333 5.65333333 38.4 16s16 24 16 38.4v368.64z" fill="#000000"/>
  <path d="M249.06666667 432.42666667c-18.77333333 0-34.13333333 15.36-34.13333334 34.13333333s15.36 34.13333333 34.13333334 34.13333333 34.13333333-15.36 34.13333333-34.13333333-15.36-34.13333333-34.13333333-34.13333333zM249.06666667 557.22666667c-18.77333333 0-34.13333333 15.36-34.13333334 34.13333333s15.36 34.13333333 34.13333334 34.13333333 34.13333333-15.36 34.13333333-34.13333333-15.36-34.13333333-34.13333333-34.13333333z" fill="#000000"/>
</svg>
